<svg xmlns="http://www.w3.org/2000/svg" viewBox="0 0 1122 1122"><defs><style>.cls-1{fill:none;}.cls-2{fill:#edeae4;}</style></defs><title>pattern</title><g id="Layer_2" data-name="Layer 2"><g id="bg"><polygon class="cls-1" points="403.94 447.22 507.42 387.48 507.42 349.96 474.16 369.16 474.16 369.16 438.67 389.65 438.67 389.65 403.94 409.7 403.94 447.22"/><polygon class="cls-1" points="792.85 308.11 760.36 326.87 863.84 386.61 896.33 367.85 792.85 308.11"/><polygon class="cls-1" points="366.95 308.11 334.45 326.87 437.93 386.61 470.42 367.85 366.95 308.11"/><polygon class="cls-1" points="616.89 447.22 720.37 387.48 720.37 349.96 687.12 369.16 687.12 369.16 651.62 389.65 651.62 389.65 616.89 409.7 616.89 447.22"/><polygon class="cls-1" points="579.9 308.11 547.41 326.87 650.88 386.61 683.38 367.85 579.9 308.11"/><polygon class="cls-1" points="686.38 492.54 653.88 511.29 757.36 571.04 789.85 552.28 686.38 492.54"/><polygon class="cls-1" points="372.61 516.3 295.96 472.04 263.47 490.8 366.95 550.54 399.44 531.79 372.61 516.3"/><polygon class="cls-1" points="689.38 490.8 792.85 550.54 825.35 531.79 798.12 516.07 721.87 472.04 689.38 490.8"/><polygon class="cls-1" points="758.86 858.78 791.35 877.54 791.35 758.06 758.86 739.3 758.86 858.78"/><polygon class="cls-1" points="294.46 594.13 261.97 575.37 261.97 694.85 267.63 698.12 294.46 713.61 294.46 594.13"/><polygon class="cls-1" points="829.85 857.05 933.32 797.31 933.32 759.79 829.85 819.53 829.85 857.05"/><polygon class="cls-1" points="792.85 676.96 760.36 695.72 863.84 755.46 896.33 736.7 792.85 676.96"/><polygon class="cls-1" points="829.85 488.2 933.32 428.46 933.32 390.94 829.85 450.69 829.85 488.2"/><polygon class="cls-1" points="723.37 672.63 826.85 612.88 826.85 575.37 723.37 635.11 723.37 672.63"/><polygon class="cls-1" points="403.94 898.03 507.42 838.29 507.42 800.77 403.94 860.52 403.94 898.03"/><polygon class="cls-1" points="616.89 898.03 720.37 838.29 720.37 800.77 616.89 860.52 616.89 898.03"/><polygon class="cls-1" points="723.37 838.29 755.86 857.05 755.86 737.57 723.37 718.81 723.37 838.29"/><polygon class="cls-1" points="365.45 508.7 365.45 389.21 332.95 370.45 332.95 489.94 365.45 508.7"/><polygon class="cls-1" points="471.92 693.12 471.92 573.63 439.43 554.88 439.43 674.36 471.92 693.12"/><polygon class="cls-1" points="541.41 572.77 437.93 513.03 432.26 516.3 405.44 531.79 508.92 591.53 541.41 572.77"/><polygon class="cls-1" points="440.93 511.29 544.41 571.04 576.9 552.28 473.42 492.54 440.93 511.29"/><polygon class="cls-1" points="687.88 694.85 693.95 698.36 720.37 713.61 720.37 594.13 687.88 575.37 687.88 694.85"/><polygon class="cls-1" points="613.89 616.35 510.42 676.09 510.42 713.61 613.89 653.87 613.89 616.35"/><polygon class="cls-1" points="652.38 674.36 684.88 693.12 684.88 573.63 652.38 554.88 652.38 674.36"/><polygon class="cls-1" points="616.89 529.19 720.37 469.44 720.37 431.93 616.89 491.67 616.89 529.19"/><polygon class="cls-1" points="616.89 653.87 649.38 672.63 649.38 553.14 616.89 534.38 616.89 653.87"/><polygon class="cls-1" points="474.16 738.01 438.67 758.5 438.67 758.5 403.94 778.55 403.94 816.07 507.42 756.33 507.42 718.81 474.16 738.01 474.16 738.01"/><polygon class="cls-1" points="615.39 656.47 582.9 675.23 686.38 734.97 718.87 716.21 615.39 656.47"/><polygon class="cls-1" points="647.88 757.19 544.41 697.45 511.92 716.21 615.39 775.95 647.88 757.19"/><polygon class="cls-1" points="507.42 759.79 403.94 819.53 403.94 857.05 507.42 797.31 507.42 759.79"/><polygon class="cls-1" points="579.9 676.96 547.41 695.72 650.88 755.46 683.38 736.7 579.9 676.96"/><polygon class="cls-1" points="507.42 431.93 403.94 491.67 403.94 529.19 507.42 469.44 507.42 431.93"/><polygon class="cls-1" points="510.42 672.63 613.89 612.88 613.89 575.37 510.42 635.11 510.42 672.63"/><polygon class="cls-1" points="507.42 594.13 474.92 575.37 474.92 694.85 480.59 698.12 507.42 713.61 507.42 594.13"/><polygon class="cls-1" points="545.14 574.07 510.42 594.13 510.42 631.64 613.89 571.9 613.89 534.38 580.64 553.58 580.64 553.58 545.15 574.07 545.14 574.07"/><polygon class="cls-1" points="826.85 898.03 826.85 778.55 794.35 759.79 794.35 879.27 826.85 898.03"/><polygon class="cls-1" points="328.45 203.92 224.98 144.18 219.31 147.45 192.48 162.94 295.96 222.68 328.45 203.92"/><polygon class="cls-1" points="545.14 205.23 510.42 225.28 510.42 262.8 613.89 203.06 613.89 165.54 580.64 184.74 580.64 184.74 545.15 205.23 545.14 205.23"/><polygon class="cls-1" points="936.32 1082.46 1039.8 1022.72 1039.8 985.2 936.32 1044.94 936.32 1082.46"/><polygon class="cls-1" points="758.1 205.23 723.37 225.28 723.37 262.8 826.85 203.06 826.85 165.54 793.59 184.74 793.59 184.74 758.1 205.23 758.1 205.23"/><polygon class="cls-1" points="971.05 205.23 936.32 225.28 936.32 262.8 1039.8 203.06 1039.8 165.54 1006.55 184.74 1006.55 184.74 971.05 205.23 971.05 205.23"/><polygon class="cls-1" points="967.32 203.92 863.84 144.18 858.58 147.22 831.35 162.94 934.82 222.68 967.32 203.92"/><polygon class="cls-1" points="936.32 303.78 1039.8 244.04 1039.8 206.52 936.32 266.26 936.32 303.78"/><polygon class="cls-1" points="754.36 203.92 650.88 144.18 644.81 147.69 618.39 162.94 721.87 222.68 754.36 203.92"/><polygon class="cls-1" points="541.41 203.92 437.93 144.18 432.26 147.45 405.44 162.94 508.92 222.68 541.41 203.92"/><polygon class="cls-1" points="84.51 262.8 187.98 203.06 187.98 165.54 154.73 184.74 154.73 184.74 119.24 205.23 119.24 205.23 84.51 225.28 84.51 262.8"/><polygon class="cls-1" points="81.51 594.13 49.02 575.37 49.02 694.85 54.68 698.12 81.51 713.61 81.51 594.13"/><polygon class="cls-1" points="84.51 1000.49 187.98 940.75 187.98 903.23 154.73 922.43 154.73 922.43 119.24 942.92 119.24 942.92 84.51 962.97 84.51 1000.49"/><polygon class="cls-1" points="332.19 205.23 297.46 225.28 297.46 262.8 400.94 203.06 400.94 165.54 367.69 184.74 367.68 184.74 332.19 205.23 332.19 205.23"/><polygon class="cls-1" points="616.89 488.2 720.37 428.46 720.37 390.94 616.89 450.69 616.89 488.2"/><polygon class="cls-1" points="899.33 492.54 866.84 511.29 970.32 571.04 1002.81 552.28 899.33 492.54"/><polygon class="cls-1" points="81.51 225.28 49.02 206.52 49.02 326 54.68 329.27 81.51 344.76 81.51 225.28"/><polygon class="cls-1" points="84.51 631.64 187.98 571.9 187.98 534.38 154.73 553.58 154.73 553.58 119.24 574.07 119.24 574.07 84.51 594.13 84.51 631.64"/><polygon class="cls-1" points="936.32 1041.47 1039.8 981.73 1039.8 944.21 936.32 1003.96 936.32 1041.47"/><polygon class="cls-1" points="936.32 672.63 1039.8 612.88 1039.8 575.37 936.32 635.11 936.32 672.63"/><polygon class="cls-1" points="721.87 840.89 689.38 859.65 792.85 919.39 825.35 900.63 721.87 840.89"/><polygon class="cls-1" points="686.38 861.38 653.88 880.14 757.36 939.88 789.85 921.12 686.38 861.38"/><polygon class="cls-1" points="295.96 840.89 263.47 859.65 366.95 919.39 399.44 900.63 295.96 840.89"/><polygon class="cls-1" points="508.92 840.89 476.42 859.65 579.9 919.39 612.39 900.63 508.92 840.89"/><polygon class="cls-1" points="260.47 861.38 227.98 880.14 331.45 939.88 363.95 921.12 260.47 861.38"/><polygon class="cls-1" points="294.46 390.94 190.98 450.69 190.98 488.2 294.46 428.46 294.46 390.94"/><polygon class="cls-1" points="189.48 656.47 156.99 675.23 260.47 734.97 292.96 716.21 189.48 656.47"/><polygon class="cls-1" points="473.42 861.38 440.93 880.14 544.41 939.88 576.9 921.12 473.42 861.38"/><polygon class="cls-1" points="189.48 287.62 156.99 306.38 260.47 366.12 292.96 347.36 189.48 287.62"/><polygon class="cls-1" points="899.33 861.38 866.84 880.14 970.32 939.88 1002.81 921.12 899.33 861.38"/><polygon class="cls-1" points="863.84 881.87 831.35 900.63 934.82 960.38 967.32 941.62 863.84 881.87"/><polygon class="cls-1" points="934.82 840.89 902.33 859.65 1005.81 919.39 1038.3 900.63 934.82 840.89"/><polygon class="cls-1" points="328.45 941.62 224.98 881.87 192.48 900.63 295.96 960.38 328.45 941.62"/><polygon class="cls-1" points="187.98 898.03 187.98 778.55 155.49 759.79 155.49 879.27 187.98 898.03"/><polygon class="cls-1" points="541.41 941.62 437.93 881.87 405.44 900.63 508.92 960.38 541.41 941.62"/><polygon class="cls-1" points="754.36 941.62 650.88 881.87 618.39 900.63 721.87 960.38 754.36 941.62"/><polygon class="cls-1" points="402.44 656.47 369.95 675.23 473.42 734.97 505.92 716.21 402.44 656.47"/><polygon class="cls-1" points="936.32 838.29 968.82 857.05 968.82 737.57 936.32 718.81 936.32 838.29"/><polygon class="cls-1" points="1039.8 616.35 936.32 676.09 936.32 713.61 1039.8 653.87 1039.8 616.35"/><polygon class="cls-1" points="902.33 490.8 1005.81 550.54 1038.3 531.79 1011.88 516.53 934.82 472.04 902.33 490.8"/><polygon class="cls-1" points="510.42 303.78 613.89 244.04 613.89 206.52 510.42 266.26 510.42 303.78"/><polygon class="cls-1" points="971.82 370.45 971.82 489.94 1004.31 508.7 1004.31 389.21 971.82 370.45"/><polygon class="cls-1" points="971.82 739.3 971.82 858.78 1004.31 877.54 1004.31 758.06 971.82 739.3"/><polygon class="cls-1" points="865.34 923.72 865.34 1043.21 897.83 1061.97 897.83 942.48 865.34 923.72"/><polygon class="cls-1" points="1006.55 922.43 971.06 942.92 971.05 942.92 936.32 962.97 936.32 1000.49 1039.8 940.75 1039.8 903.23 1006.55 922.43 1006.55 922.43"/><polygon class="cls-1" points="826.85 985.2 723.37 1044.94 723.37 1082.46 826.85 1022.72 826.85 985.2"/><polygon class="cls-1" points="933.32 962.97 900.83 944.21 900.83 1063.7 933.32 1082.46 933.32 962.97"/><polygon class="cls-1" points="186.48 162.94 159.25 147.22 83.01 103.2 50.52 121.96 153.99 181.7 186.48 162.94"/><polygon class="cls-1" points="227.98 142.45 331.45 202.19 363.95 183.43 260.47 123.69 227.98 142.45"/><polygon class="cls-1" points="720.37 962.97 687.88 944.21 687.88 1063.7 720.37 1082.46 720.37 962.97"/><polygon class="cls-1" points="155.49 141.58 160.75 144.62 187.98 160.34 187.98 40.85 155.49 22.1 155.49 141.58"/><polygon class="cls-1" points="186.48 531.79 159.25 516.07 83.01 472.04 50.52 490.8 153.99 550.54 186.48 531.79"/><polygon class="cls-1" points="117 368.72 84.51 349.96 84.51 469.44 117 488.2 117 368.72"/><polygon class="cls-1" points="936.32 469.44 968.82 488.2 968.82 368.72 936.32 349.96 936.32 469.44"/><polygon class="cls-1" points="866.84 142.45 970.32 202.19 1002.81 183.43 899.33 123.69 866.84 142.45"/><polygon class="cls-1" points="1039.8 247.5 936.32 307.25 936.32 344.76 1039.8 285.02 1039.8 247.5"/><polygon class="cls-1" points="653.88 142.45 757.36 202.19 789.85 183.43 686.38 123.69 653.88 142.45"/><polygon class="cls-1" points="440.93 142.45 544.41 202.19 576.9 183.43 473.42 123.69 440.93 142.45"/><polygon class="cls-1" points="613.89 985.2 510.42 1044.94 510.42 1082.46 613.89 1022.72 613.89 985.2"/><polygon class="cls-1" points="152.49 508.7 152.49 389.21 120 370.45 120 489.94 152.49 508.7"/><polygon class="cls-1" points="221.98 388.35 118.5 328.6 86.01 347.36 189.48 407.1 221.98 388.35"/><polygon class="cls-1" points="652.38 923.72 652.38 1043.21 684.88 1061.97 684.88 942.48 652.38 923.72"/><polygon class="cls-1" points="84.51 672.63 187.98 612.88 187.98 575.37 84.51 635.11 84.51 672.63"/><polygon class="cls-1" points="187.98 616.35 84.51 676.09 84.51 713.61 187.98 653.87 187.98 616.35"/><polygon class="cls-1" points="187.98 247.5 84.51 307.25 84.51 344.76 187.98 285.02 187.98 247.5"/><polygon class="cls-1" points="476.42 490.8 579.9 550.54 612.39 531.79 585.16 516.07 508.92 472.04 476.42 490.8"/><polygon class="cls-1" points="294.46 59.62 294.46 22.1 190.98 81.84 190.98 119.36 294.46 59.62"/><polygon class="cls-1" points="84.51 303.78 187.98 244.04 187.98 206.52 84.51 266.26 84.51 303.78"/><polygon class="cls-1" points="297.46 303.78 400.94 244.04 400.94 206.52 297.46 266.26 297.46 303.78"/><polygon class="cls-1" points="187.98 409.7 155.49 390.94 155.49 510.43 160.75 513.47 187.98 529.19 187.98 409.7"/><polygon class="cls-1" points="221.98 757.19 118.5 697.45 86.01 716.21 189.48 775.95 221.98 757.19"/><polygon class="cls-1" points="294.46 962.97 261.97 944.21 261.97 1063.7 294.46 1082.46 294.46 962.97"/><polygon class="cls-1" points="439.43 923.72 439.43 1043.21 471.92 1061.97 471.92 942.48 439.43 923.72"/><polygon class="cls-1" points="117 857.05 117 737.57 84.51 718.81 84.51 838.29 117 857.05"/><polygon class="cls-1" points="507.42 962.97 474.92 944.21 474.92 1063.7 507.42 1082.46 507.42 962.97"/><polygon class="cls-1" points="400.94 985.2 297.46 1044.94 297.46 1082.46 400.94 1022.72 400.94 985.2"/><polygon class="cls-1" points="226.48 923.72 226.48 1043.21 258.97 1061.97 258.97 942.48 226.48 923.72"/><polygon class="cls-1" points="152.49 877.54 152.49 758.06 120 739.3 120 858.78 152.49 877.54"/><polygon class="cls-1" points="84.51 1041.47 187.98 981.73 187.98 944.21 84.51 1003.96 84.51 1041.47"/><polygon class="cls-1" points="187.98 985.2 84.51 1044.94 84.51 1082.46 187.98 1022.72 187.98 985.2"/><polygon class="cls-1" points="1006.55 553.58 971.05 574.07 971.05 574.07 936.32 594.13 936.32 631.64 1039.8 571.9 1039.8 534.38 1006.55 553.58 1006.55 553.58"/><polygon class="cls-1" points="369.94 1044.07 473.42 1103.82 505.92 1085.06 402.44 1025.31 369.94 1044.07"/><polygon class="cls-1" points="582.9 1044.07 686.38 1103.82 718.87 1085.06 615.39 1025.31 582.9 1044.07"/><polygon class="cls-1" points="156.99 1044.07 260.47 1103.82 292.96 1085.06 189.48 1025.31 156.99 1044.07"/><polygon class="cls-1" points="1042.8 1022.72 1075.29 1041.47 1075.29 921.99 1042.8 903.23 1042.8 1022.72"/><polygon class="cls-1" points="795.85 1044.07 899.33 1103.82 931.82 1085.06 828.35 1025.31 795.85 1044.07"/><polygon class="cls-1" points="1078.29 1043.21 1110.79 1061.97 1110.79 942.48 1078.29 923.72 1078.29 1043.21"/><polygon class="cls-1" points="46.02 573.63 13.52 554.88 13.52 674.36 46.02 693.12 46.02 573.63"/><polygon class="cls-1" points="47.52 492.54 15.02 511.29 118.5 571.04 150.99 552.28 47.52 492.54"/><polygon class="cls-1" points="46.02 204.79 13.52 186.03 13.52 305.51 46.02 324.27 46.02 204.79"/><polygon class="cls-1" points="46.02 942.48 13.52 923.72 13.52 1043.21 46.02 1061.97 46.02 942.48"/><polygon class="cls-1" points="47.52 861.38 15.02 880.14 118.5 939.88 150.99 921.12 47.52 861.38"/><polygon class="cls-1" points="791.35 20.36 758.86 1.6 758.86 121.09 791.35 139.85 791.35 20.36"/><polygon class="cls-1" points="186.48 900.63 83.01 840.89 50.51 859.65 153.99 919.39 186.48 900.63"/><polygon class="cls-1" points="720.37 59.62 720.37 22.1 616.89 81.84 616.89 119.36 720.37 59.62"/><polygon class="cls-1" points="507.42 59.62 507.42 22.1 403.94 81.84 403.94 119.36 507.42 59.62"/><polygon class="cls-1" points="1076.79 755.46 1109.29 736.7 1005.81 676.96 973.32 695.72 1076.79 755.46"/><polygon class="cls-1" points="578.4 20.36 545.91 1.6 545.91 121.09 578.4 139.85 578.4 20.36"/><polygon class="cls-1" points="1078.29 674.36 1110.79 693.12 1110.79 573.63 1078.29 554.88 1078.29 674.36"/><polygon class="cls-1" points="1076.79 386.61 1109.29 367.85 1005.81 308.11 973.32 326.87 1076.79 386.61"/><polygon class="cls-1" points="1004.31 20.36 971.82 1.6 971.82 121.09 1004.31 139.85 1004.31 20.36"/><polygon class="cls-1" points="1078.29 305.51 1110.79 324.27 1110.79 204.79 1078.29 186.03 1078.29 305.51"/><polygon class="cls-1" points="933.32 59.62 933.32 22.1 829.85 81.84 829.85 119.36 933.32 59.62"/><polygon class="cls-1" points="1042.8 165.54 1042.8 285.02 1075.29 303.78 1075.29 184.3 1042.8 165.54"/><polygon class="cls-1" points="970.32 328.6 937.82 347.36 1041.3 407.1 1073.79 388.35 970.32 328.6"/><polygon class="cls-1" points="829.85 160.34 933.32 100.6 933.32 63.08 829.85 122.82 829.85 160.34"/><polygon class="cls-1" points="1007.31 510.43 1013.38 513.93 1039.8 529.19 1039.8 409.7 1007.31 390.94 1007.31 510.43"/><polygon class="cls-1" points="1007.31 141.58 1013.38 145.09 1039.8 160.34 1039.8 40.85 1007.31 22.1 1007.31 141.58"/><polygon class="cls-1" points="902.33 121.96 1005.81 181.7 1038.3 162.94 1011.88 147.69 934.82 103.2 902.33 121.96"/><polygon class="cls-1" points="1007.31 879.27 1039.8 898.03 1039.8 778.55 1007.31 759.79 1007.31 879.27"/><polygon class="cls-1" points="49.02 944.21 49.02 1063.7 81.51 1082.46 81.51 962.97 49.02 944.21"/><polygon class="cls-1" points="970.32 697.45 937.82 716.21 1041.3 775.95 1073.79 757.19 970.32 697.45"/><polygon class="cls-1" points="1042.8 534.38 1042.8 653.87 1075.29 672.63 1075.29 553.14 1042.8 534.38"/><polygon class="cls-1" points="152.49 20.36 120 1.6 120 121.09 152.49 139.85 152.49 20.36"/><polygon class="cls-1" points="368.45 141.58 374.11 144.85 400.94 160.34 400.94 40.85 368.45 22.1 368.45 141.58"/><polygon class="cls-1" points="263.47 121.96 366.95 181.7 399.44 162.94 372.61 147.45 295.96 103.2 263.47 121.96"/><polygon class="cls-1" points="47.52 123.69 15.02 142.45 118.5 202.19 150.99 183.43 47.52 123.69"/><polygon class="cls-1" points="190.98 160.34 294.46 100.6 294.46 63.08 190.98 122.82 190.98 160.34"/><polygon class="cls-1" points="403.94 160.34 507.42 100.6 507.42 63.08 403.94 122.82 403.94 160.34"/><polygon class="cls-1" points="616.89 160.34 720.37 100.6 720.37 63.08 616.89 122.82 616.89 160.34"/><polygon class="cls-1" points="794.35 141.58 799.62 144.62 826.85 160.34 826.85 40.85 794.35 22.1 794.35 141.58"/><polygon class="cls-1" points="476.42 121.96 579.9 181.7 612.39 162.94 585.16 147.22 508.92 103.2 476.42 121.96"/><polygon class="cls-1" points="689.38 121.96 792.85 181.7 825.35 162.94 798.12 147.22 721.87 103.2 689.38 121.96"/><polygon class="cls-1" points="581.4 141.58 586.66 144.62 613.89 160.34 613.89 40.85 581.4 22.1 581.4 141.58"/><polygon class="cls-1" points="436.43 672.63 436.43 553.14 403.94 534.38 403.94 653.87 436.43 672.63"/><polygon class="cls-1" points="369.95 306.38 473.42 366.12 505.92 347.36 402.44 287.62 369.95 306.38"/><polygon class="cls-1" points="647.88 388.35 544.41 328.6 511.92 347.36 615.39 407.1 647.88 388.35"/><polygon class="cls-1" points="434.93 388.35 331.45 328.6 298.96 347.36 402.44 407.1 434.93 388.35"/><polygon class="cls-1" points="190.98 447.22 294.46 387.48 294.46 349.96 261.21 369.16 261.21 369.16 225.72 389.65 225.72 389.65 190.98 409.7 190.98 447.22"/><polygon class="cls-1" points="582.9 306.38 686.38 366.12 718.87 347.36 615.39 287.62 582.9 306.38"/><polygon class="cls-1" points="758.86 489.94 791.35 508.7 791.35 389.21 758.86 370.45 758.86 489.94"/><polygon class="cls-1" points="723.37 469.44 755.86 488.2 755.86 368.72 723.37 349.96 723.37 469.44"/><polygon class="cls-1" points="297.46 344.76 400.94 285.02 400.94 247.5 297.46 307.25 297.46 344.76"/><polygon class="cls-1" points="261.97 326 267.63 329.27 294.46 344.76 294.46 225.28 261.97 206.52 261.97 326"/><polygon class="cls-1" points="257.47 367.85 153.99 308.11 121.5 326.87 224.98 386.61 257.47 367.85"/><polygon class="cls-1" points="403.94 285.02 436.43 303.78 436.43 184.3 403.94 165.54 403.94 285.02"/><polygon class="cls-1" points="329.95 368.72 297.46 349.96 297.46 469.44 329.95 488.2 329.95 368.72"/><polygon class="cls-1" points="226.48 305.51 258.97 324.27 258.97 204.79 226.48 186.03 226.48 305.51"/><polygon class="cls-1" points="400.94 903.23 367.69 922.43 367.68 922.43 332.19 942.92 332.19 942.92 297.46 962.97 297.46 1000.49 400.94 940.75 400.94 903.23"/><polygon class="cls-1" points="794.35 510.43 799.62 513.47 826.85 529.19 826.85 409.7 794.35 390.94 794.35 510.43"/><polygon class="cls-1" points="613.89 778.55 581.4 759.79 581.4 879.27 613.89 898.03 613.89 778.55"/><polygon class="cls-1" points="436.43 921.99 403.94 903.23 403.94 1022.72 436.43 1041.47 436.43 921.99"/><polygon class="cls-1" points="439.43 305.51 471.92 324.27 471.92 204.79 439.43 186.03 439.43 305.51"/><polygon class="cls-1" points="578.4 758.06 545.91 739.3 545.91 858.78 578.4 877.54 578.4 758.06"/><polygon class="cls-1" points="400.94 944.21 297.46 1003.96 297.46 1041.47 400.94 981.73 400.94 944.21"/><polygon class="cls-1" points="793.59 553.58 758.1 574.07 758.1 574.07 723.37 594.13 723.37 631.64 826.85 571.9 826.85 534.38 793.59 553.58 793.59 553.58"/><polygon class="cls-1" points="294.46 431.93 190.98 491.67 190.98 529.19 294.46 469.44 294.46 431.93"/><polygon class="cls-1" points="223.48 672.63 223.48 553.14 190.98 534.38 190.98 653.87 223.48 672.63"/><polygon class="cls-1" points="190.98 816.07 294.46 756.33 294.46 718.81 261.21 738.01 261.21 738.01 225.72 758.5 225.72 758.5 190.98 778.55 190.98 816.07"/><polygon class="cls-1" points="257.47 736.7 153.99 676.96 121.5 695.72 224.98 755.46 257.47 736.7"/><polygon class="cls-1" points="223.48 921.99 190.98 903.23 190.98 1022.72 223.48 1041.47 223.48 921.99"/><polygon class="cls-1" points="723.37 713.61 826.85 653.87 826.85 616.35 723.37 676.09 723.37 713.61"/><polygon class="cls-1" points="474.92 326 480.59 329.27 507.42 344.76 507.42 225.28 474.92 206.52 474.92 326"/><polygon class="cls-1" points="258.97 693.12 258.97 573.63 226.48 554.88 226.48 674.36 258.97 693.12"/><polygon class="cls-1" points="294.46 800.77 190.98 860.52 190.98 898.03 294.46 838.29 294.46 800.77"/><polygon class="cls-1" points="829.85 860.52 829.85 898.03 933.32 838.29 933.32 800.77 829.85 860.52"/><polygon class="cls-1" points="328.45 572.77 224.98 513.03 219.31 516.3 192.48 531.79 295.96 591.53 328.45 572.77"/><polygon class="cls-1" points="900.07 738.01 864.58 758.5 864.58 758.5 829.85 778.55 829.85 816.07 933.32 756.33 933.32 718.81 900.07 738.01 900.07 738.01"/><polygon class="cls-1" points="329.95 857.05 329.95 737.57 297.46 718.81 297.46 838.29 329.95 857.05"/><polygon class="cls-1" points="363.95 552.28 260.47 492.54 227.98 511.29 331.45 571.04 363.95 552.28"/><polygon class="cls-1" points="297.46 631.64 400.94 571.9 400.94 534.38 367.69 553.58 367.68 553.58 332.19 574.07 332.19 574.07 297.46 594.13 297.46 631.64"/><polygon class="cls-1" points="757.36 328.6 724.87 347.36 828.35 407.1 860.84 388.35 757.36 328.6"/><polygon class="cls-1" points="795.85 675.23 899.33 734.97 931.82 716.21 828.35 656.47 795.85 675.23"/><polygon class="cls-1" points="757.36 697.45 724.87 716.21 828.35 775.95 860.84 757.19 757.36 697.45"/><polygon class="cls-1" points="190.98 857.05 294.46 797.31 294.46 759.79 190.98 819.53 190.98 857.05"/><polygon class="cls-1" points="829.85 285.02 862.34 303.78 862.34 184.3 829.85 165.54 829.85 285.02"/><polygon class="cls-1" points="865.34 554.88 865.34 674.36 897.83 693.12 897.83 573.63 865.34 554.88"/><polygon class="cls-1" points="652.38 305.51 684.88 324.27 684.88 204.79 652.38 186.03 652.38 305.51"/><polygon class="cls-1" points="687.88 326 693.95 329.51 720.37 344.76 720.37 225.28 687.88 206.52 687.88 326"/><polygon class="cls-1" points="616.89 285.02 649.38 303.78 649.38 184.3 616.89 165.54 616.89 285.02"/><polygon class="cls-1" points="510.42 344.76 613.89 285.02 613.89 247.5 510.42 307.25 510.42 344.76"/><polygon class="cls-1" points="723.37 344.76 826.85 285.02 826.85 247.5 723.37 307.25 723.37 344.76"/><polygon class="cls-1" points="829.85 653.87 862.34 672.63 862.34 553.14 829.85 534.38 829.85 653.87"/><polygon class="cls-1" points="829.85 491.67 829.85 529.19 933.32 469.44 933.32 431.93 829.85 491.67"/><polygon class="cls-1" points="900.07 369.16 864.58 389.65 864.58 389.65 829.85 409.7 829.85 447.22 933.32 387.48 933.32 349.96 900.07 369.16 900.07 369.16"/><polygon class="cls-1" points="795.85 306.38 899.33 366.12 931.82 347.36 828.35 287.62 795.85 306.38"/><polygon class="cls-1" points="865.34 186.03 865.34 305.51 897.83 324.27 897.83 204.79 865.34 186.03"/><polygon class="cls-1" points="190.98 285.02 223.48 303.78 223.48 184.3 190.98 165.54 190.98 285.02"/><polygon class="cls-1" points="400.94 616.35 297.46 676.09 297.46 713.61 400.94 653.87 400.94 616.35"/><polygon class="cls-1" points="297.46 672.63 400.94 612.88 400.94 575.37 297.46 635.11 297.46 672.63"/><polygon class="cls-1" points="368.45 510.43 374.11 513.7 400.94 529.19 400.94 409.7 368.45 390.94 368.45 510.43"/><polygon class="cls-1" points="434.93 757.19 331.45 697.45 298.96 716.21 402.44 775.95 434.93 757.19"/><polygon class="cls-1" points="510.42 469.44 542.91 488.2 542.91 368.72 510.42 349.96 510.42 469.44"/><polygon class="cls-1" points="863.84 513.03 858.58 516.07 831.35 531.79 934.82 591.53 967.32 572.77 863.84 513.03"/><polygon class="cls-1" points="581.4 510.43 586.66 513.47 613.89 529.19 613.89 409.7 581.4 390.94 581.4 510.43"/><polygon class="cls-1" points="545.91 489.94 578.4 508.7 578.4 389.21 545.91 370.45 545.91 489.94"/><polygon class="cls-1" points="826.85 944.21 723.37 1003.96 723.37 1041.47 826.85 981.73 826.85 944.21"/><polygon class="cls-1" points="649.38 921.99 616.89 903.23 616.89 1022.72 649.38 1041.47 649.38 921.99"/><polygon class="cls-1" points="365.45 877.54 365.45 758.06 332.95 739.3 332.95 858.78 365.45 877.54"/><polygon class="cls-1" points="400.94 778.55 368.45 759.79 368.45 879.27 400.94 898.03 400.94 778.55"/><polygon class="cls-1" points="613.89 944.21 510.42 1003.96 510.42 1041.47 613.89 981.73 613.89 944.21"/><polygon class="cls-1" points="542.91 737.57 510.42 718.81 510.42 838.29 542.91 857.05 542.91 737.57"/><polygon class="cls-1" points="933.32 594.13 900.83 575.37 900.83 694.85 906.09 697.89 933.32 713.61 933.32 594.13"/><polygon class="cls-1" points="826.85 903.23 793.59 922.43 793.59 922.43 758.1 942.92 758.1 942.92 723.37 962.97 723.37 1000.49 826.85 940.75 826.85 903.23"/><polygon class="cls-1" points="862.34 921.99 829.85 903.23 829.85 1022.72 862.34 1041.47 862.34 921.99"/><polygon class="cls-1" points="933.32 225.28 900.83 206.52 900.83 326 906.09 329.04 933.32 344.76 933.32 225.28"/><polygon class="cls-1" points="720.37 759.79 616.89 819.53 616.89 857.05 720.37 797.31 720.37 759.79"/><polygon class="cls-1" points="403.94 488.2 507.42 428.46 507.42 390.94 403.94 450.69 403.94 488.2"/><polygon class="cls-1" points="613.89 903.23 580.64 922.43 580.64 922.43 545.15 942.92 545.14 942.92 510.42 962.97 510.42 1000.49 613.89 940.75 613.89 903.23"/><polygon class="cls-1" points="365.45 20.36 332.95 1.6 332.95 121.09 365.45 139.85 365.45 20.36"/><polygon class="cls-1" points="470.42 736.7 366.95 676.96 334.45 695.72 437.93 755.46 470.42 736.7"/><polygon class="cls-1" points="687.12 738.01 651.62 758.5 651.62 758.5 616.89 778.55 616.89 816.07 720.37 756.33 720.37 718.81 687.12 738.01 687.12 738.01"/><polygon class="cls-1" points="650.88 513.03 644.81 516.53 618.39 531.79 721.87 591.53 754.36 572.77 650.88 513.03"/><polygon class="cls-1" points="723.37 303.78 826.85 244.04 826.85 206.52 723.37 266.26 723.37 303.78"/><polygon class="cls-2" points="48.25 0.31 48.25 0.31 48.79 0 42.79 0 12.02 17.77 0 10.82 0 14.29 9.02 19.5 0 24.71 0 28.17 12.76 20.8 12.76 20.8 48.25 0.31"/><path class="cls-2" d="M191,40.86,225.71,20.8h0L261.21.31h0l.54-.31h-6L225,17.77,194.21,0h-6L222,19.5l-32.5,18.76L123.22,0H117V119.36L84.51,100.6V0h-3V18.63L0,65.69v3.46L81.51,22.1V59.61L0,106.67v3.47L81.51,63.08V100.6L0,147.66v3.46l6.36-3.67L12,144.18,115.5,203.92,83,222.68,0,174.76v3.46l10.52,6.08V303.78L0,297.71v3.46l80,46.19-32.5,18.76L0,338.69v3.46l44.51,25.7L12,386.61,0,379.67v3.47l9,5.2-9,5.21V397l12.76-7.37h0l35.49-20.49h0L81.51,350v37.52L0,434.54V438l81.51-47.06v37.52L0,475.52V479l81.51-47.05v37.51L0,516.5V520l6.36-3.67L12,513,115.5,572.77,83,591.53,0,543.6v3.47l10.52,6.07V672.63L0,666.55V670l80,46.19L47.51,735,0,707.54V711l44.51,25.7L12,755.46,0,748.52V752l9,5.21L0,762.4v3.47l12.76-7.37h0L48.25,738h0l33.26-19.2v37.52L0,803.38v3.47l81.51-47.06v37.52L0,844.37v3.46l81.51-47.06v37.52L0,885.35v3.46l12-6.94L115.5,941.62,83,960.38,0,912.45v3.47L10.52,922v119.48L0,1035.4v3.46l80,46.2-32.5,18.76L0,1076.38v3.47l44.51,25.7L16,1122h6l26.23-15.15h0l33.25-19.2V1122h3v-34.35L117,1106.41V1122h3v-13.85L144,1122h6l-64-36.94,32.49-18.76L215,1122h6l-99.48-57.44L154,1045.81l103.48,59.74L229,1122h6l26.23-15.15h0l33.25-19.2V1122h3v-34.35L330,1106.41V1122h3v-13.85L357,1122h6l-64-36.94,32.49-18.76,96.48,55.7h6l-99.48-57.44,32.5-18.75,103.47,59.74L441.93,1122h6l26.23-15.15h0l33.25-19.2V1122h3v-34.35l32.49,18.76V1122h3v-13.85l24,13.85h6l-64-36.94,32.49-18.76,96.48,55.7h6l-99.48-57.44,32.49-18.75,103.48,59.74L654.88,1122h6l26.23-15.15h0l33.25-19.2V1122h3v-34.35l32.49,18.76V1122h3v-13.85l24,13.85h6l-64-36.94,32.49-18.76,96.48,55.7h6l-99.48-57.44,32.49-18.75,103.48,59.74L867.83,1122h6l26.24-15.15h0l33.25-19.2V1122h3v-34.35l32.5,18.76V1122h3v-13.85l24,13.85h6l-64-36.94,32.5-18.76,96.48,55.7h6l-99.49-57.44,32.5-18.75,103.47,59.74L1080.79,1122h6l26.23-15.15h0l9-5.18v-3.46l-9.72,5.61-103.47-59.75,32.49-18.76,80.7,46.6v-3.47l-8.22-4.74V944.21L1122,949v-3.47l-77.7-44.86,32.49-18.76L1122,908v-3.46l-42.21-24.37,32.49-18.76L1122,867v-3.46l-6.72-3.88,6.72-3.88v-3.46L1042.8,898V860.52l79.2-45.73v-3.46l-79.2,45.72V819.53l79.2-45.72v-3.47l-79.2,45.73V778.55l34.73-20h0L1113,738h0l9-5.19v-3.46l-9.72,5.61-103.47-59.74,32.49-18.76,80.7,46.59v-3.47l-3-1.7-5.27-3V575.37l8.22,4.74v-3.46l-77.7-44.86,27.23-15.73,5.26-3,45.21,26.1v-3.47l-42.21-24.37,32.49-18.76,9.72,5.61v-3.46l-6.72-3.88,6.72-3.87v-3.47l-79.2,45.73V491.67l79.2-45.73v-3.46l-79.2,45.72V450.69L1122,405V401.5l-79.2,45.72V409.7l34.73-20.05h0L1113,369.16h0l9-5.18v-3.47l-9.72,5.61-103.47-59.74,32.49-18.76,80.7,46.59v-3.46l-3-1.71-5.27-3V206.52l8.22,4.74V207.8l-77.7-44.86,27.23-15.72,5.26-3,45.21,26.1v-3.46l-42.21-24.37,32.49-18.76,9.72,5.61v-3.47l-6.72-3.87,6.72-3.88v-3.47l-79.2,45.73V122.82L1122,77.1V73.63l-79.2,45.73V81.84L1122,36.11V32.65l-79.2,45.72V40.86l34.73-20.06h0L1113,.31h0l.54-.31h-6l-30.77,17.77L1046,0h-6l33.77,19.5L1041.3,38.26,975,0h-6.22V119.36l-32.5-18.76V0h-3V18.63L829.85,78.37V40.86L864.58,20.8h0L900.07.31h0l.54-.31h-6L863.84,17.77,833.07,0h-6l33.77,19.5L828.35,38.26,762.08,0h-6.22V119.36L723.37,100.6V0h-3V18.63L616.89,78.37V40.86L651.62,20.8h0L687.11.31h0l.54-.31h-6L650.88,17.77,620.11,0h-6l33.77,19.5L615.39,38.26,549.13,0h-6.22V119.36L510.42,100.6V0h-3V18.63L403.94,78.37V40.86L438.67,20.8h0L474.16.31h0L474.7,0h-6L437.93,17.77,407.16,0h-6l33.77,19.5L402.44,38.26,336.17,0H330V119.36L297.46,100.6V0h-3V18.63L191,78.37ZM119.24,942.92h0l35.49-20.49h0L188,903.23v37.52L84.51,1000.49V963ZM49,694.85V575.37l32.5,18.76V713.61L54.68,698.12Zm70.23-120.78h0l35.49-20.49h0L188,534.38V571.9L84.51,631.64V594.13ZM49,326V206.52l32.5,18.76V344.76L54.68,329.28Zm70.23-120.77h0l35.49-20.49h0L188,165.54v37.52L84.51,262.8V225.28Zm248.45-20.5,33.25-19.19v37.52L297.46,262.8V225.28l34.73-20.05h0l35.49-20.49Zm213,0,33.25-19.19v37.52L510.42,262.8V225.28l34.73-20.05h0l35.49-20.49Zm213,0,33.26-19.19v37.52L723.37,262.8V225.28l34.73-20.05h0l35.49-20.49Zm213,0,33.25-19.19v37.52L936.32,262.8V225.28l34.73-20.05h0l35.49-20.49Zm33.25,838-103.48,59.74v-37.52L1039.8,985.2ZM219.31,147.45l5.67-3.27,103.47,59.74L296,222.68,192.48,162.94Zm213,0,5.67-3.27,103.48,59.74-32.49,18.76L405.44,162.94Zm212.55.24,6.07-3.51,103.48,59.74-32.49,18.76L618.39,162.94Zm213.76-.47,5.27-3,103.48,59.74-32.5,18.76L831.35,162.94ZM1039.8,244,936.32,303.78V266.26l103.48-59.74ZM970.32,571,866.84,511.29l32.49-18.76,103.48,59.75Zm69.48,41.85L936.32,672.63V635.11l103.48-59.74Zm-34,306.5L902.33,859.65l32.49-18.76,103.48,59.74Zm-35.49,20.49L866.84,880.14l32.49-18.76,103.48,59.74Zm69.48,41.85-103.48,59.75V1004l103.48-59.75Zm-105-21.35L831.35,900.63l32.49-18.76,103.48,59.75ZM618.39,900.63l32.49-18.76,103.48,59.75-32.49,18.76Zm-212.95,0,32.49-18.76,103.48,59.75-32.49,18.76Zm-213,0L225,881.87l103.47,59.75L296,960.38ZM188,778.55V898l-32.49-18.75V759.79ZM792.85,919.39,689.38,859.65l32.49-18.76,103.48,59.74Zm-35.49,20.49L653.88,880.14l32.5-18.76,103.47,59.74ZM579.9,919.39,476.42,859.65l32.5-18.76,103.47,59.74Zm-35.49,20.49L440.93,880.14l32.49-18.76L576.9,921.12ZM367,919.39,263.47,859.65,296,840.89l103.48,59.74Zm-35.5,20.49L228,880.14l32.49-18.76L364,921.12ZM260.47,735,157,675.23l32.49-18.76L293,716.21ZM191,450.69l103.48-59.75v37.52L191,488.2Zm69.49-84.57L157,306.38l32.49-18.76L293,347.36Zm603.37,20.49L760.36,326.87l32.49-18.76,103.48,59.74Zm69.48,41.85L829.85,488.2V450.69l103.47-59.75Zm-69.48,327L760.36,695.72,792.85,677,896.33,736.7Zm69.48,41.85L829.85,857.05V819.53l103.47-59.74ZM262,694.85V575.37l32.49,18.76V713.61l-26.83-15.49Zm564.88,83.7V898l-32.5-18.75V759.79Zm-35.5,99-32.49-18.76V739.3l32.49,18.76Zm-35.49-20.49-32.49-18.76V718.81l32.49,18.76Zm-35.49-18.76L616.89,898V860.52l103.48-59.75Zm-212.95,0L403.94,898V860.52l103.48-59.75ZM367,550.54,263.47,490.8,296,472l76.65,44.26,26.83,15.49Zm-1.5-161.33V508.7L333,489.94V370.45Zm72.48-2.6L334.45,326.87,367,308.11l103.47,59.74Zm.74,3h0l35.49-20.49h0L507.42,350v37.52L403.94,447.22V409.7Zm212.21-3L547.41,326.87l32.49-18.76,103.48,59.74Zm.74,3h0l35.49-20.49h0L720.37,350v37.52L616.89,447.22V409.7ZM825.35,531.79l-32.5,18.75L689.38,490.8,721.87,472l76.25,44Zm-68,39.25L653.88,511.29l32.5-18.76,103.47,59.75Zm69.49,41.85L723.37,672.63V635.11l103.48-59.74ZM511.92,716.21l32.49-18.76,103.47,59.74L615.39,776Zm-108,103.32,103.48-59.74v37.52L403.94,857.05Zm103.48-63.2L403.94,816.07V778.55l34.73-20h0L474.16,738h0l33.26-19.2Zm179-21.36L582.9,675.23l32.49-18.76,103.48,59.74Zm-35.5,20.49L547.41,695.72,579.9,677,683.38,736.7ZM473.42,735,370,675.23l32.49-18.76,103.48,59.74Zm-69.48-243.3,103.48-59.74v37.51L403.94,529.19Zm176.7,61.91,33.25-19.2V571.9L510.42,631.64V594.13l34.73-20.06h0l35.49-20.49ZM474.92,694.85V575.37l32.5,18.76V713.61l-26.83-15.49Zm139-82L510.42,672.63V635.11l103.47-59.74Zm-103.47,63.2,103.47-59.74v37.52L510.42,713.61Zm34-105.05L440.93,511.29l32.49-18.76L576.9,552.28ZM432.26,516.3l5.67-3.27,103.48,59.74-32.49,18.76L405.44,531.79Zm39.66,57.33V693.12l-32.49-18.76V554.88Zm248.45,140L694,698.36l-6.07-3.51V575.37l32.49,18.76Zm-35.49-20.49-32.5-18.76V554.88l32.5,18.75Zm-35.5-20.49-32.49-18.76V534.38l32.49,18.76Zm71-203.19L616.89,529.19V491.67l103.48-59.74Zm0-41L616.89,488.2V450.69l103.48-59.75Zm-108,103.33L579.9,550.54,476.42,490.8,508.92,472l76.24,44Zm-105-103.33L403.94,488.2V450.69l103.48-59.75Zm-71,124.68V672.63l-32.49-18.76V534.38ZM367,677,470.42,736.7l-32.49,18.76L334.45,695.72ZM616.89,819.53l103.48-59.74v37.52L616.89,857.05Zm103.48-63.2L616.89,816.07V778.55l34.73-20h0L687.11,738h0l33.25-19.2Zm1.5-164.8L618.39,531.79l26.42-15.26,6.07-3.5,103.48,59.74Zm-108-62.34-27.23-15.72-5.26-3V390.94l32.49,18.76ZM578.4,508.7l-32.49-18.76V370.45l32.49,18.76Zm-35.49-20.5-32.49-18.76V350l32.49,18.76Zm-142,41L374.11,513.7l-5.66-3.27V390.94l32.49,18.76Zm0,83.7L297.46,672.63V635.11l103.48-59.74Zm-103.48,63.2,103.48-59.74v37.52L297.46,713.61Zm34,21.36,103.48,59.74L402.44,776,299,716.21Zm34,60.61V877.54L333,858.78V739.3Zm3,1.73,32.49,18.76V898l-32.49-18.75Zm142-41,32.49,18.76V857.05l-32.49-18.76Zm35.49,20.49,32.49,18.76V877.54l-32.49-18.76Zm35.49,20.49,32.49,18.76V898L581.4,879.28ZM826.85,653.87,723.37,713.61V676.09l103.48-59.74Zm0-82L723.37,631.64V594.13l34.73-20.06h0l35.49-20.49h0l33.26-19.2Zm0-42.71-27.23-15.72-5.27-3V390.94l32.5,18.76Zm-35.5-20.49-32.49-18.76V370.45l32.49,18.76Zm-35.49-20.5-32.49-18.76V350l32.49,18.76ZM686.38,366.12,582.9,306.38l32.49-18.76,103.48,59.74Zm-142-37.52,103.47,59.74L615.39,407.1,511.92,347.36Zm-71,37.52L370,306.38l32.49-18.76,103.48,59.74Zm-142-37.52,103.48,59.74L402.44,407.1,299,347.36Zm-34,21.36L330,368.72V488.2l-32.49-18.76Zm-37,142.57L364,552.28,331.45,571,228,511.29Zm71.72,81.54h0l35.49-20.49h0l33.25-19.2V571.9L297.46,631.64V594.13ZM330,737.57V857.05l-32.49-18.76V718.81ZM828.35,776,724.87,716.21l32.49-18.76,103.48,59.74Zm0-368.85L724.87,347.36l32.49-18.76,103.48,59.74Zm-609,109.2L225,513l103.47,59.74L296,591.53,192.48,531.79ZM259,573.63V693.12l-32.49-18.76V554.88Zm35.49,223.68L191,857.05V819.53l103.48-59.74ZM191,860.52l103.48-59.75v37.52L191,898ZM829.85,898V860.52l103.47-59.75v37.52Zm103.47-141.7L829.85,816.07V778.55l34.73-20h0L900.07,738h0l33.25-19.2Zm-34-21.36L795.85,675.23l32.5-18.76,103.47,59.74Zm-34-60.61V554.88l32.49,18.75V693.12Zm-3-1.73-32.49-18.76V534.38l32.49,18.76ZM829.85,529.19V491.67l103.47-59.74v37.51ZM933.32,387.48,829.85,447.22V409.7l34.73-20.05h0l35.49-20.49h0L933.32,350Zm-34-21.36L795.85,306.38l32.5-18.76,103.47,59.74Zm-34-60.61V186l32.49,18.76V324.27Zm-3-1.73L829.85,285V165.54l32.49,18.76ZM826.85,285,723.37,344.76V307.25L826.85,247.5ZM720.37,344.76,694,329.51,687.88,326V206.52l32.49,18.76Zm-35.49-20.49-32.5-18.76V186l32.5,18.76Zm-35.5-20.49L616.89,285V165.54l32.49,18.76ZM613.89,285,510.42,344.76V307.25L613.89,247.5ZM507.42,344.76l-26.83-15.48L474.92,326V206.52l32.5,18.76Zm-35.5-20.49-32.49-18.76V186l32.49,18.76Zm-35.49-20.49L403.94,285V165.54l32.49,18.76ZM400.94,285,297.46,344.76V307.25L400.94,247.5ZM294.46,344.76l-26.83-15.48L262,326V206.52l32.49,18.76ZM259,324.27l-32.49-18.76V186L259,204.79Zm-35.49-20.49L191,285V165.54l32.5,18.76ZM154,308.11l103.48,59.74L225,386.61,121.5,326.87Zm71.72,81.54h0l35.49-20.49h0L294.46,350v37.52L191,447.22V409.7ZM191,491.67l103.48-59.74v37.51L191,529.19Zm32.5,61.47V672.63L191,653.87V534.38ZM154,677,257.47,736.7,225,755.46,121.5,695.72Zm71.72,81.54h0L261.21,738h0l33.25-19.2v37.52L191,816.07V778.55ZM191,903.23,223.48,922v119.48L191,1022.72ZM297.46,963l34.73-20.05h0l35.49-20.49h0l33.25-19.2v37.52l-103.48,59.74Zm0,41,103.48-59.75v37.52l-103.48,59.75ZM403.94,903.23,436.43,922v119.48l-32.49-18.75ZM510.42,963l34.72-20.05h0l35.49-20.49h0l33.25-19.2v37.52l-103.47,59.74Zm0,41,103.47-59.75v37.52l-103.47,59.75ZM616.89,903.23,649.38,922v119.48l-32.49-18.75ZM723.37,963l34.73-20.05h0l35.49-20.49h0l33.26-19.2v37.52l-103.48,59.74Zm0,41,103.48-59.75v37.52l-103.48,59.75ZM829.85,903.23,862.34,922v119.48l-32.49-18.75Zm71-208.38V575.37l32.49,18.76V713.61l-27.23-15.72Zm34-103.32L831.35,531.79l27.22-15.73,5.27-3,103.48,59.74ZM900.83,326V206.52l32.49,18.76V344.76L906.09,329Zm-74-82L723.37,303.78V266.26l103.48-59.74Zm-213,0L510.42,303.78V266.26l103.47-59.74Zm-212.95,0L297.46,303.78V266.26l103.48-59.74Zm-213,0L84.51,303.78V266.26L188,206.52ZM84.51,307.25,188,247.5V285L84.51,344.76Zm34,21.35L222,388.34l-32.5,18.76L86,347.36Zm34,60.61V508.7L120,489.94V370.45Zm3,121.22V390.94L188,409.7V529.19l-27.23-15.72ZM188,612.89,84.51,672.63V635.11L188,575.37ZM84.51,676.09,188,616.35v37.52L84.51,713.61Zm34,21.36L222,757.19,189.48,776,86,716.21Zm34,60.61V877.54L120,858.78V739.3ZM188,981.73,84.51,1041.48V1004L188,944.21ZM84.51,1044.94,188,985.2v37.52L84.51,1082.46Zm142-1.73V923.72L259,942.48V1062Zm35.49-99L294.46,963v119.49L262,1063.7Zm35.49,100.73L400.94,985.2v37.52l-103.48,59.74Zm142-1.73V923.72l32.49,18.76V1062Zm35.49-99L507.42,963v119.49l-32.5-18.76Zm35.5,100.73L613.89,985.2v37.52l-103.47,59.74Zm142-1.73V923.72l32.5,18.76V1062Zm35.5-99L720.37,963v119.49l-32.49-18.76Zm35.49,100.73L826.85,985.2v37.52l-103.48,59.74Zm142-1.73V923.72l32.49,18.76V1062Zm35.49-99L933.32,963v119.49l-32.49-18.76Zm139-3.46-103.48,59.74V963l34.73-20.05h0l35.49-20.49h0l33.25-19.2Zm-68-82V739.3l32.49,18.76V877.54Zm-3-1.73-32.5-18.76V718.81l32.5,18.76Zm-32.5-181,103.48-59.74v37.52L936.32,713.61ZM1039.8,571.9,936.32,631.64V594.13l34.73-20.06h0l35.49-20.49h0l33.25-19.2Zm-1.5-40.11-32.49,18.75L902.33,490.8,934.82,472l77.06,44.49Zm-66.48-41.85V370.45l32.49,18.76V508.7Zm-3-1.74-32.5-18.76V350l32.5,18.76Zm-32.5-180.95L1039.8,247.5V285L936.32,344.76Zm34-105.06L866.84,142.45l32.49-18.76,103.48,59.74Zm-213,0L653.88,142.45l32.5-18.76,103.47,59.74Zm-213,0L440.93,142.45l32.49-18.76L576.9,183.43Zm-213,0L228,142.45l32.49-18.76L364,183.43ZM188,160.34l-27.23-15.72-5.26-3V22.1L188,40.86ZM83,103.2l76.24,44,27.23,15.72L154,181.7,50.51,122ZM84.51,350,117,368.72V488.2L84.51,469.44ZM83,472l76.24,44,27.23,15.73L154,550.54,50.51,490.8Zm34,265.53V857.05L84.51,838.29V718.81ZM83,840.89l103.47,59.74L154,919.39,50.51,859.65ZM49,1063.7V944.21L81.51,963v119.49ZM1039.8,898l-32.49-18.75V759.79l32.49,18.76ZM1041.3,776,937.82,716.21l32.5-18.76,103.47,59.74Zm1.5-122.08V534.38l32.49,18.76V672.63Zm-3-124.68-26.42-15.25-6.07-3.51V390.94l32.49,18.76Zm1.5-122.09L937.82,347.36l32.5-18.76,103.47,59.74ZM1042.8,285V165.54l32.49,18.76V303.78Zm-3-124.68-26.42-15.25-6.07-3.51V22.1l32.49,18.76Zm-1.5,2.6-32.49,18.76L902.33,122l32.49-18.76,77.06,44.49Zm-105-62.34L829.85,160.34V122.82L933.32,63.08ZM826.85,160.34l-27.23-15.72-5.27-3V22.1l32.5,18.76Zm-1.5,2.6-32.5,18.76L689.38,122l32.49-18.76,76.25,44Zm-105-62.34L616.89,160.34V122.82L720.37,63.08ZM613.89,160.34l-27.23-15.72-5.26-3V22.1l32.49,18.76Zm-1.5,2.6L579.9,181.7,476.42,122l32.5-18.76,76.24,44Zm-105-62.34L403.94,160.34V122.82L507.42,63.08ZM400.94,160.34l-26.83-15.49-5.66-3.27V22.1l32.49,18.76Zm-1.5,2.6L367,181.7,263.47,122,296,103.2l76.65,44.25Zm-105-62.34L191,160.34V122.82L294.46,63.08ZM120,1.6l32.49,18.76V139.85L120,121.09ZM15,142.45l32.49-18.76L151,183.43,118.5,202.19ZM13.52,186,46,204.79V324.27L13.52,305.51ZM15,511.29l32.49-18.76L151,552.28,118.5,571Zm-1.5,43.59L46,573.63V693.12L13.52,674.36ZM15,880.14l32.49-18.76L151,921.12,118.5,939.88Zm-1.5,43.58L46,942.48V1062l-32.49-18.76Zm247,180.1L157,1044.07l32.49-18.76L293,1085.06Zm213,0L370,1044.07l32.49-18.76,103.48,59.75Zm213,0L582.9,1044.07l32.49-18.76,103.48,59.75Zm213,0-103.48-59.75,32.5-18.76,103.47,59.75ZM1110.78,1062l-32.49-18.76V923.72l32.49,18.76Zm-35.49-140v119.48l-32.49-18.75V903.23Zm34-185.29-32.49,18.76L973.32,695.72,1005.81,677Zm1.5-43.58-32.49-18.76V554.88l32.49,18.75Zm-1.5-325.27-32.49,18.76L973.32,326.87l32.49-18.76Zm1.5-43.58-32.49-18.76V186l32.49,18.76ZM971.82,1.6l32.49,18.76V139.85l-32.49-18.76Zm-38.5,20.5V59.61L829.85,119.36V81.84ZM758.86,1.6l32.49,18.76V139.85l-32.49-18.76ZM720.37,22.1V59.61L616.89,119.36V81.84ZM545.91,1.6,578.4,20.36V139.85l-32.49-18.76ZM507.42,22.1V59.61L403.94,119.36V81.84ZM333,1.6l32.5,18.76V139.85L333,121.09ZM294.46,22.1V59.61L191,119.36V81.84Z"/><polygon class="cls-2" points="0 1120.83 2.03 1122 8.03 1122 0 1117.37 0 1120.83"/></g></g></svg>