<svg xmlns="http://www.w3.org/2000/svg" xmlns:xlink="http://www.w3.org/1999/xlink" width="90" height="78" viewBox="0 0 90 78">
  <defs>
    <clipPath id="clip-path">
      <rect id="Rectangle_48" data-name="Rectangle 48" width="90" height="78" fill="#fc0" stroke="#fc0" stroke-width="1"/>
    </clipPath>
  </defs>
  <g id="Mask_Group_2" data-name="Mask Group 2" clip-path="url(#clip-path)">
    <path id="pendant" d="M88.829,5.889a3.13,3.13,0,0,0-4.4.478l-6.994,8.7A72.086,72.086,0,0,1,49.043,36.4v-.454a4.043,4.043,0,0,0-8.086,0V36.4A72.086,72.086,0,0,1,12.566,15.068l-6.993-8.7A3.132,3.132,0,0,0,0,8.33v2.909A3.142,3.142,0,0,0,.69,13.2l5.574,6.934A80.028,80.028,0,0,0,40.957,45.076v7.875l-6.038,3.581a6.138,6.138,0,0,0-2.142,2.154c-.022.031-.046.058-.065.091s-.03.07-.045.1a6.142,6.142,0,0,0-.761,2.944V71.936a6.146,6.146,0,0,0,.761,2.943,1.113,1.113,0,0,0,.046.1c.01.018.025.03.036.047a6.147,6.147,0,0,0,2.172,2.2l6.943,4.117a6.147,6.147,0,0,0,6.276,0l6.943-4.117a6.147,6.147,0,0,0,2.171-2.2.582.582,0,0,0,.036-.046c.019-.033.03-.07.046-.1a6.148,6.148,0,0,0,.761-2.943V61.822a6.142,6.142,0,0,0-.761-2.944,1.02,1.02,0,0,0-.045-.1c-.019-.032-.043-.06-.065-.091a6.137,6.137,0,0,0-2.143-2.155l-6.038-3.581V45.074A80.034,80.034,0,0,0,83.737,20.132L89.308,13.2A3.138,3.138,0,0,0,90,11.238V8.33a3.113,3.113,0,0,0-1.171-2.441ZM45,73.8l-5.01-2.972V62.923L45,59.951l5.01,2.972v7.909Zm-1.582-37.86a1.582,1.582,0,0,1,3.164,0V51.758c-.182-.049-.367-.077-.552-.109-.075-.013-.149-.034-.225-.044a6.091,6.091,0,0,0-1.61,0c-.076.01-.15.032-.225.044-.185.032-.37.06-.552.109ZM8.182,18.592,2.608,11.657a.67.67,0,0,1-.147-.422V8.33a.67.67,0,0,1,.669-.67.648.648,0,0,1,.074,0,.665.665,0,0,1,.453.252l6.993,8.7A74.554,74.554,0,0,0,40.957,39.065v3.393A77.563,77.563,0,0,1,8.182,18.592ZM43.064,54.56l.051-.031a3.693,3.693,0,0,1,.653-.3v3.586L38.746,60.8l-3.1-1.763a3.571,3.571,0,0,1,.525-.387ZM34.431,72.583a3.633,3.633,0,0,1-.065-.65V61.822a3.627,3.627,0,0,1,.065-.65l3.1,1.765v7.881Zm1.743,2.526a3.672,3.672,0,0,1-.525-.388l3.1-1.765,5.022,2.978v3.586a3.7,3.7,0,0,1-.653-.3Zm10.709,4.118a3.7,3.7,0,0,1-.652.3V75.938l5.022-2.978,3.1,1.765a3.672,3.672,0,0,1-.525.388Zm8.686-18.055a3.628,3.628,0,0,1,.065.65V71.934a3.635,3.635,0,0,1-.065.65l-3.1-1.765V62.937Zm-1.218-2.138-3.1,1.765L46.23,57.82V54.235c.024.008.048.015.07.025.044.016.09.027.134.046.061.026.12.061.179.091.09.044.182.084.269.136l.051.031,6.891,4.087A3.571,3.571,0,0,1,54.352,59.034Zm33.188-47.8a.667.667,0,0,1-.148.422l-5.572,6.934A77.569,77.569,0,0,1,49.043,42.458V39.065A74.554,74.554,0,0,0,79.352,16.61l6.992-8.7a.67.67,0,0,1,1.192.419Z" transform="translate(0 -4.702)" fill="#fc0"/>
  </g>
</svg>
