<svg xmlns="http://www.w3.org/2000/svg" xmlns:xlink="http://www.w3.org/1999/xlink" width="120" height="104" viewBox="0 0 120 104">
  <defs>
    <clipPath id="clip-path">
      <rect id="Rectangle_47" data-name="Rectangle 47" width="120" height="104" fill="#fff" stroke="#fc0" stroke-width="1"/>
    </clipPath>
  </defs>
  <g id="Mask_Group_1" data-name="Mask Group 1" clip-path="url(#clip-path)">
    <path id="pendant" d="M118.439,6.12a4.173,4.173,0,0,0-5.869.638l-9.325,11.6A96.114,96.114,0,0,1,65.391,46.8v-.606a5.391,5.391,0,0,0-10.781,0V46.8A96.114,96.114,0,0,1,16.755,18.358L7.431,6.755A4.177,4.177,0,0,0,0,9.374v3.878a4.19,4.19,0,0,0,.921,2.616l7.432,9.245A106.7,106.7,0,0,0,54.609,58.37v10.5l-8.051,4.775A8.184,8.184,0,0,0,43.7,76.517c-.029.041-.062.078-.087.122s-.039.094-.06.136A8.189,8.189,0,0,0,42.539,80.7V94.182a8.2,8.2,0,0,0,1.014,3.923,1.483,1.483,0,0,0,.061.137c.013.024.034.04.048.063a8.2,8.2,0,0,0,2.9,2.933l9.258,5.49a8.2,8.2,0,0,0,8.368,0l9.258-5.49A8.2,8.2,0,0,0,76.337,98.3a.778.778,0,0,0,.048-.062c.025-.044.04-.094.061-.136a8.2,8.2,0,0,0,1.014-3.924V80.7a8.189,8.189,0,0,0-1.015-3.925,1.36,1.36,0,0,0-.06-.136c-.025-.042-.057-.08-.086-.121a8.183,8.183,0,0,0-2.857-2.873l-8.05-4.775v-10.5A106.712,106.712,0,0,0,111.649,25.11l7.429-9.244A4.184,4.184,0,0,0,120,13.253V9.374a4.151,4.151,0,0,0-1.561-3.254ZM60,96.674l-6.68-3.963V82.165L60,78.2l6.68,3.963V92.711Zm-2.109-50.48a2.109,2.109,0,1,1,4.219,0V67.279c-.243-.065-.489-.1-.736-.145-.1-.017-.2-.046-.3-.059a8.121,8.121,0,0,0-2.147,0c-.1.013-.2.042-.3.059-.247.042-.493.081-.736.145ZM10.91,23.057,3.477,13.811a.893.893,0,0,1-.2-.563V9.374a.893.893,0,0,1,.892-.893.864.864,0,0,1,.1,0,.887.887,0,0,1,.6.337l9.324,11.6a99.405,99.405,0,0,0,40.41,29.937v4.523a103.417,103.417,0,0,1-43.7-31.822ZM57.419,71.015l.068-.041a4.926,4.926,0,0,1,.87-.395V75.36l-6.7,3.971L47.531,76.98a4.759,4.759,0,0,1,.7-.517ZM45.908,95.046a4.845,4.845,0,0,1-.087-.866V80.7a4.837,4.837,0,0,1,.087-.866l4.132,2.353V92.693Zm2.324,3.368a4.9,4.9,0,0,1-.7-.518l4.132-2.353,6.7,3.971V104.3a4.93,4.93,0,0,1-.87-.4Zm14.279,5.49a4.929,4.929,0,0,1-.87.4V99.518l6.7-3.971L72.469,97.9a4.9,4.9,0,0,1-.7.517ZM74.092,79.831a4.837,4.837,0,0,1,.087.866V94.179a4.845,4.845,0,0,1-.087.866l-4.132-2.353V82.184ZM72.469,76.98l-4.132,2.353-6.7-3.971V70.581c.032.011.064.021.094.033.059.022.12.037.178.061.082.035.159.082.239.121.12.059.243.112.359.181l.068.041,9.188,5.449A4.762,4.762,0,0,1,72.469,76.98Zm44.25-63.728a.889.889,0,0,1-.2.563l-7.43,9.245a103.426,103.426,0,0,1-43.7,31.819V50.355A99.405,99.405,0,0,0,105.8,20.415l9.323-11.6a.893.893,0,0,1,1.59.559Z" transform="translate(0 -4.537)" fill="#fff"/>
  </g>
</svg>
