<svg xmlns="http://www.w3.org/2000/svg" xmlns:xlink="http://www.w3.org/1999/xlink" width="80" height="80" viewBox="0 0 80 80">
  <defs>
    <clipPath id="clip-path">
      <rect id="Rectangle_26" data-name="Rectangle 26" width="80" height="80" transform="translate(1570 1805)" fill="none" stroke="#fff" stroke-width="2.5"/>
    </clipPath>
  </defs>
  <g id="rings" transform="translate(-1570 -1805)" clip-path="url(#clip-path)">
    <g id="wedding-rings-couple" transform="translate(1573.636 1813.349)">
      <g id="Group_5" data-name="Group 5">
        <g id="Path_6" data-name="Path 6" transform="translate(0 -2.592)" fill="none">
          <path d="M48.175,16.794A24.412,24.412,0,0,0,36.5,19.752a24.368,24.368,0,0,0-6.946-2.609l1.324-.459a1.921,1.921,0,0,0,.9-.754l4.669-8.311a.524.524,0,0,0-.28-.771L25.455,2.794l-.444-.172L24.955,2.6a.177.177,0,0,0-.111,0l-.055.021c-.1.041-.262.1-.447.173L13.625,6.848a.524.524,0,0,0-.28.771l4.671,8.327a1.916,1.916,0,0,0,.9.754l1.07.369a24.543,24.543,0,1,0,16.236,45.7,24.544,24.544,0,1,0,11.95-45.977ZM43.81,41.179A19.219,19.219,0,0,1,36.251,56.44a19.194,19.194,0,0,1,.224-30.357A19.222,19.222,0,0,1,43.81,41.179ZM24.551,60.437a19.259,19.259,0,1,1,7.06-37.16,24.436,24.436,0,0,0-.261,35.9A19.161,19.161,0,0,1,24.551,60.437Zm23.624.167a19.136,19.136,0,0,1-7.06-1.358,24.434,24.434,0,0,0,.261-35.9,19.25,19.25,0,1,1,6.8,37.255Z" stroke="none"/>
          <path d="M 24.89896774291992 2.591636657714844 C 24.87880706787109 2.591636657714844 24.85864639282227 2.594612121582031 24.84342956542969 2.600563049316406 C 24.81300354003906 2.612457275390625 24.78796768188477 2.621726989746094 24.78796768188477 2.621726989746094 C 24.68739318847656 2.662666320800781 24.52595901489258 2.72491455078125 24.34087371826172 2.7950439453125 L 13.62485122680664 6.848033905029297 C 13.29949951171875 6.971149444580078 13.17375564575195 7.316291809082031 13.34446334838867 7.619232177734375 L 18.01522827148438 15.94625473022461 C 18.18593215942383 16.24921035766602 18.58930969238281 16.58646774291992 18.91867446899414 16.70030212402344 L 19.98881530761719 17.06937408447266 C 8.624710083007813 19.21615219116211 -7.62939453125e-06 29.2019157409668 -7.62939453125e-06 41.17855072021484 C -7.62939453125e-06 54.71472930908203 11.01356887817383 65.72843170166016 24.55113220214844 65.72843170166016 C 28.77344131469727 65.72843170166016 32.74992370605469 64.65554046630859 36.22481536865234 62.77062225341797 C 39.7659797668457 64.75347137451172 43.83749771118164 65.89497375488281 48.17627716064453 65.89497375488281 C 61.71371078491211 65.89497375488281 72.72727203369141 54.88142013549805 72.72727203369141 41.34523391723633 C 72.72603607177734 27.80779647827148 61.71246337890625 16.79409027099609 48.17502593994141 16.79409027099609 C 43.95273590087891 16.79409027099609 39.97623825073242 17.86685562133789 36.50120544433594 19.75190353393555 C 34.36093521118164 18.55340957641602 32.02880477905273 17.65798568725586 29.5552864074707 17.14338684082031 L 30.8794059753418 16.68439865112305 C 31.20752334594727 16.5706901550293 31.61214447021484 16.23330307006836 31.78285217285156 15.93035125732422 L 36.45223999023438 7.619232177734375 C 36.622802734375 7.316291809082031 36.4972038269043 6.97100830078125 36.17184066772461 6.848033905029297 L 25.45458221435547 2.793670654296875 C 25.27073287963867 2.723541259765625 25.11068725585938 2.661422729492188 25.0101203918457 2.621726989746094 L 24.95450973510742 2.600563049316406 C 24.93929290771484 2.594612121582031 24.91913223266602 2.591636657714844 24.89896774291992 2.591636657714844 M 24.55113220214844 60.4372444152832 C 13.93042755126953 60.4372444152832 5.291191101074219 51.79660797119141 5.291191101074219 41.17855072021484 C 5.291191101074219 30.55907821655273 13.93042755126953 21.91859817504883 24.55113220214844 21.91859817504883 C 27.0445556640625 21.91859817504883 29.42166519165039 22.41064453125 31.61089706420898 23.27714920043945 C 26.71657943725586 27.76796340942383 23.62514495849609 34.19416427612305 23.62514495849609 41.34523391723633 C 23.62514495849609 48.36916351318359 26.6053581237793 54.69618606567383 31.35027694702148 59.17524719238281 C 29.23118209838867 59.97686767578125 26.94676971435547 60.4372444152832 24.55113220214844 60.4372444152832 M 48.17502593994141 60.60378646850586 C 45.68159484863281 60.60378646850586 43.30449676513672 60.11174011230469 41.11526489257813 59.24537658691406 C 46.00958251953125 54.75443267822266 49.10102844238281 48.32836151123047 49.10102844238281 41.17868041992188 C 49.10102844238281 34.15460968017578 46.12080383300781 27.82758712768555 41.37588500976563 23.34867858886719 C 43.49374389648438 22.54579925537109 45.77954483032227 22.08543395996094 48.17502593994141 22.08543395996094 C 58.79449844360352 22.08543395996094 67.43483734130859 30.72466659545898 67.43483734130859 41.34535980224609 C 67.43483734130859 51.96330261230469 58.79434585571289 60.60378646850586 48.17502593994141 60.60378646850586 M 36.25123977661133 56.4395866394043 C 31.79211044311523 52.90908050537109 28.91633224487305 47.46184539794922 28.91633224487305 41.34523391723633 C 28.91633224487305 35.12929153442383 31.89005279541016 29.60666656494141 36.47492218017578 26.08266830444336 C 40.93392181396484 29.61330413818359 43.80970001220703 35.0606803894043 43.80970001220703 41.17855072021484 C 43.80970001220703 47.39447784423828 40.83612060546875 52.91571426391602 36.25123977661133 56.4395866394043 M 24.89896774291992 0.09163665771484375 C 25.22765731811523 0.09163665771484375 25.54718399047852 0.1503067016601563 25.84896469116211 0.2660446166992188 L 25.89934539794922 0.2852249145507813 L 25.91370010375977 0.290679931640625 L 25.92799377441406 0.2963180541992188 C 26.02175903320313 0.3333282470703125 26.17059326171875 0.3910675048828125 26.34167861938477 0.4563522338867188 L 37.05641555786133 4.509761810302734 C 37.89348602294922 4.826137542724609 38.54673385620117 5.483516693115234 38.84795761108398 6.313068389892578 C 39.14913558959961 7.142467498779297 39.0699462890625 8.065597534179688 38.63068771362305 8.84576416015625 L 34.57597732543945 16.06279754638672 C 35.23368835449219 16.32749557495117 35.88251495361328 16.61877059936523 36.52154541015625 16.93630981445313 C 40.14445114135742 15.20419692993164 44.1450309753418 14.29409027099609 48.17502593994141 14.29409027099609 C 63.09032440185547 14.29409027099609 75.22591400146484 26.42908096313477 75.22727203369141 41.34500885009766 C 75.22727203369141 56.26051330566406 63.09225082397461 68.39497375488281 48.17627716064453 68.39497375488281 C 44.03326416015625 68.39497375488281 39.92254257202148 67.42703247070313 36.20550918579102 65.58570861816406 C 32.58235549926758 67.31804656982422 28.58122634887695 68.22843170166016 24.55113220214844 68.22843170166016 C 9.635086059570313 68.22843170166016 -2.500007629394531 56.09390258789063 -2.500007629394531 41.17855072021484 C -2.500007629394531 37.95193862915039 -1.934196472167969 34.79316329956055 -0.8182754516601563 31.78997421264648 C 0.259124755859375 28.89039611816406 1.818954467773438 26.21250534057617 3.817878723144531 23.83064651489258 C 6.841552734375 20.22773361206055 10.74686050415039 17.48270034790039 15.09610366821289 15.85230255126953 L 11.1640510559082 8.842258453369141 C 10.72698211669922 8.066619873046875 10.64745330810547 7.143634796142578 10.94828796386719 6.314231872558594 C 11.24921798706055 5.484539031982422 11.90228652954102 4.826869964599609 12.74005126953125 4.509845733642578 L 23.45647430419922 0.4567031860351563 C 23.69845199584961 0.365020751953125 23.80410003662109 0.3230361938476563 23.84540557861328 0.3062210083007813 L 23.88238143920898 0.2911605834960938 L 23.91982650756836 0.2773056030273438 L 23.93314743041992 0.2721710205078125 C 24.23900604248047 0.1524810791015625 24.56422805786133 0.09163665771484375 24.89896774291992 0.09163665771484375 Z M 26.97203063964844 24.59803009033203 C 26.17110824584961 24.4786376953125 25.36292266845703 24.41859817504883 24.55113220214844 24.41859817504883 C 15.30967330932617 24.41859817504883 7.791191101074219 31.93708038330078 7.791191101074219 41.17855072021484 C 7.791191101074219 50.41932678222656 15.30967330932617 57.9372444152832 24.55113220214844 57.9372444152832 C 25.27964019775391 57.9372444152832 26.00742721557617 57.88787460327148 26.73199462890625 57.78961181640625 C 25.41228485107422 56.07821655273438 24.30493927001953 54.21815490722656 23.42274475097656 52.22745513916016 C 21.89817047119141 48.78718566894531 21.12514495849609 45.12587738037109 21.12514495849609 41.34523391723633 C 21.12514495849609 37.4967041015625 21.92575836181641 33.77498626708984 23.50475692749023 30.28344345092773 C 24.42842102050781 28.24101638793945 25.58876800537109 26.33955764770508 26.97203063964844 24.59803009033203 Z M 48.17502593994141 58.10378646850586 C 57.41641616821289 58.10378646850586 64.93483734130859 50.58598327636719 64.93483734130859 41.34535980224609 C 64.93483734130859 32.10390472412109 57.41641616821289 24.58543395996094 48.17502593994141 24.58543395996094 C 47.44592666625977 24.58543395996094 46.71778869628906 24.63482666015625 45.9932975769043 24.73311233520508 C 47.31337356567383 26.44477462768555 48.42104339599609 28.30524063110352 49.30341720581055 30.29635238647461 C 50.8280029296875 33.73662185668945 51.60102844238281 37.39796447753906 51.60102844238281 41.17868041992188 C 51.60102844238281 45.02658843994141 50.8004035949707 48.74790191650391 49.22138214111328 52.2392578125 C 48.29770660400391 54.28159332275391 47.137451171875 56.1828727722168 45.75420379638672 57.92436981201172 C 46.55513000488281 58.04375457763672 47.36327362060547 58.10378646850586 48.17502593994141 58.10378646850586 Z M 36.27581024169922 53.11563110351563 C 39.49725341796875 49.97010803222656 41.30970001220703 45.71955871582031 41.30970001220703 41.17855072021484 C 41.30970001220703 36.72775268554688 39.5601921081543 32.5371208190918 36.4503288269043 29.40671920776367 C 33.22880172729492 32.55250549316406 31.41633224487305 36.80353927612305 31.41633224487305 41.34523391723633 C 31.41633224487305 45.79531860351563 33.16591262817383 49.9854736328125 36.27581024169922 53.11563110351563 Z" stroke="none" fill="#fff"/>
        </g>
      </g>
    </g>
  </g>
</svg>
