<?xml version="1.0" encoding="iso-8859-1"?>
<!-- Generator: Adobe Illustrator 21.0.0, SVG Export Plug-In . SVG Version: 6.00 Build 0)  -->
<svg version="1.1" id="Capa_1" xmlns="http://www.w3.org/2000/svg" xmlns:xlink="http://www.w3.org/1999/xlink" x="0px" y="0px"
	 viewBox="0 0 495.983 495.983" style="enable-background:new 0 0 495.983 495.983;" xml:space="preserve">
<g>
	<g>
		<g>
			<path d="M128.467,48.739l19.225,10.521l10.521,19.233c1.449,2.645,4.226,4.29,7.242,4.29c3.016,0,5.793-1.645,7.242-4.29
				l10.521-19.233l19.225-10.521c2.645-1.449,4.29-4.226,4.29-7.242s-1.645-5.793-4.29-7.242l-19.225-10.521L172.697,4.501
				c-1.577-2.474-4.308-3.972-7.242-3.972s-5.665,1.498-7.242,3.972l-10.521,19.233l-19.225,10.521
				c-2.645,1.449-4.29,4.226-4.29,7.242S125.821,47.29,128.467,48.739z M157.733,37.062c1.396-0.76,2.543-1.907,3.303-3.303
				l4.418-8.085l4.435,8.109c0.76,1.396,1.907,2.543,3.303,3.303l8.085,4.41l-8.101,4.435c-1.396,0.76-2.543,1.907-3.303,3.303
				l-4.418,8.085l-4.435-8.109c-0.76-1.396-1.907-2.543-3.303-3.303l-8.085-4.41L157.733,37.062z"/>
			<path d="M417.499,114.804l19.225,10.521l10.521,19.233c1.449,2.645,4.226,4.29,7.242,4.29s5.793-1.645,7.242-4.29l10.521-19.233
				l19.225-10.521c2.645-1.449,4.29-4.226,4.29-7.242s-1.645-5.793-4.29-7.242L472.25,89.798l-10.521-19.233
				c-1.577-2.474-4.308-3.972-7.242-3.972s-5.665,1.498-7.242,3.972l-10.521,19.233l-19.225,10.521
				c-2.645,1.449-4.29,4.226-4.29,7.242S414.854,113.354,417.499,114.804z M446.766,103.127c1.396-0.76,2.543-1.907,3.303-3.303
				l4.418-8.085l4.435,8.109c0.76,1.396,1.907,2.543,3.303,3.303l8.101,4.435l-8.118,4.41c-1.396,0.76-2.543,1.907-3.303,3.303
				l-4.418,8.085l-4.435-8.109c-0.76-1.396-1.907-2.543-3.303-3.303l-8.085-4.41L446.766,103.127z"/>
			<path d="M489.826,267.18c-17.679-66.189-71.097-116.799-138.144-130.881v-0.033l43.611-65.412
				c0.149-0.231,0.182-0.487,0.306-0.718c0.237-0.444,0.433-0.908,0.586-1.387c0.178-0.555,0.291-1.129,0.339-1.709
				c0.065-0.253,0.118-0.51,0.157-0.768c0-0.215-0.107-0.396-0.124-0.603c-0.049-0.592-0.166-1.177-0.347-1.742
				c-0.122-0.447-0.28-0.883-0.471-1.305c-0.256-0.474-0.557-0.922-0.9-1.338c-0.295-0.409-0.63-0.788-0.999-1.131
				c-0.132-0.124-0.198-0.289-0.347-0.405L319.17,1.941c-0.188-0.103-0.381-0.197-0.578-0.281c-0.458-0.291-0.945-0.535-1.453-0.727
				c-0.478-0.21-0.976-0.374-1.486-0.487c-1.54-0.333-3.147-0.162-4.583,0.487c-0.511,0.19-1.001,0.434-1.462,0.727
				c-0.182,0.116-0.405,0.149-0.578,0.281l-74.323,57.806c-0.149,0.116-0.215,0.281-0.347,0.405
				c-0.37,0.343-0.704,0.722-0.999,1.131c-0.345,0.417-0.647,0.868-0.9,1.346c-0.191,0.416-0.349,0.847-0.471,1.288
				c-0.181,0.569-0.297,1.156-0.347,1.751c0,0.206-0.124,0.388-0.124,0.603c0.04,0.256,0.092,0.509,0.157,0.76
				c0.047,0.581,0.161,1.154,0.339,1.709c0.151,0.48,0.347,0.945,0.586,1.387c0.124,0.24,0.157,0.495,0.306,0.727l43.644,65.462
				c-9.725,2.066-19.263,4.933-28.515,8.572c-75.76-29.725-162.045-5.442-211.182,59.432c-49.137,64.874-49.137,154.511,0,219.386
				s135.422,89.157,211.182,59.432c63.78,25.014,136.208,12.011,187.304-33.626S507.505,333.369,489.826,267.18z M255.203,74.529
				H314.1c4.561,0,8.258-3.697,8.258-8.258c0-4.561-3.697-8.258-8.258-8.258h-50.25l50.25-39.085l50.25,39.085h-17.218
				c-4.561,0-8.258,3.697-8.258,8.258c0,4.561,3.697,8.258,8.258,8.258h25.864l-39.259,58.888
				c-6.521-0.715-13.077-1.076-19.638-1.082c-6.55,0.025-13.094,0.4-19.605,1.123L255.203,74.529z M82.024,445.654
				c-41.169-31.234-65.31-79.965-65.215-131.641c0.02-55.104,27.51-106.572,73.299-137.229
				c45.789-30.657,103.848-36.469,154.805-15.495c16.619,6.806,31.997,16.316,45.51,28.143
				c35.521,30.918,56.149,75.533,56.696,122.622s-19.038,92.171-53.831,123.906c-9.931-1.634-19.615-4.52-28.821-8.588
				c38.44-27.865,60.145-73.308,57.66-120.721c-2.485-47.412-28.822-90.337-69.965-114.031c-15.58-9.152-32.824-15.115-50.729-17.54
				c-0.215,0-0.454,0-0.669-0.074c-6.223-0.917-12.505-1.377-18.795-1.379c-77.534,0-140.387,62.853-140.387,140.387
				S104.437,454.4,181.971,454.4c5.267-0.015,10.529-0.349,15.756-0.999c8.896,7.435,18.487,13.997,28.639,19.596
				C176.626,487.009,123.193,476.887,82.024,445.654z M314.926,190.224v-0.041c67.519,1.233,121.609,56.32,121.609,123.85
				s-54.09,122.617-121.609,123.85C379.91,368.119,379.91,259.989,314.926,190.224z M248.035,418.576
				c-35.972-22.591-57.806-62.086-57.806-104.564s21.834-81.972,57.806-104.564c35.972,22.591,57.806,62.086,57.806,104.564
				S284.007,395.985,248.035,418.576z M181.106,190.226c-64.97,69.772-64.958,177.902,0.039,247.658
				c-67.144-1.734-120.673-56.663-120.673-123.83C60.472,246.901,113.98,191.98,181.106,190.226z M464.035,383.332
				c-27.016,58.449-85.544,95.862-149.935,95.842c-68.172,0.016-129.346-41.867-153.991-105.429s-7.693-135.735,42.672-181.679
				c9.931,1.634,19.615,4.52,28.821,8.588c-38.44,27.865-60.145,73.308-57.66,120.721c2.485,47.412,28.822,90.337,69.965,114.031
				c15.58,9.152,32.824,15.115,50.729,17.54c6.442,0.975,12.949,1.461,19.464,1.453c77.534,0,140.387-62.853,140.387-140.387
				S391.633,173.626,314.1,173.626c-5.267,0.015-10.529,0.349-15.756,0.999c-8.896-7.435-18.487-13.997-28.639-19.596
				c62.014-17.333,128.447,2.966,170.184,51.999C481.625,256.06,491.051,324.882,464.035,383.332z"/>
			<path d="M305.842,107.561h16.516c4.561,0,8.258-3.697,8.258-8.258s-3.697-8.258-8.258-8.258h-16.516
				c-4.561,0-8.258,3.697-8.258,8.258S301.281,107.561,305.842,107.561z"/>
		</g>
	</g>
</g>
<g>
</g>
<g>
</g>
<g>
</g>
<g>
</g>
<g>
</g>
<g>
</g>
<g>
</g>
<g>
</g>
<g>
</g>
<g>
</g>
<g>
</g>
<g>
</g>
<g>
</g>
<g>
</g>
<g>
</g>
</svg>
